<?xml version="1.0" standalone="no"?>
<!DOCTYPE svg PUBLIC "-//W3C//DTD SVG 20010904//EN"
 "http://www.w3.org/TR/2001/REC-SVG-20010904/DTD/svg10.dtd">
<svg version="1.0" xmlns="http://www.w3.org/2000/svg"
 width="452.000000pt" height="128.000000pt" viewBox="0 0 452.000000 128.000000"
 preserveAspectRatio="xMidYMid meet">

<g transform="translate(0.000000,128.000000) scale(0.100000,-0.100000)"
fill="#000000" stroke="none">
<path d="M242 958 c-17 -17 -17 -849 0 -866 20 -20 76 -15 88 8 7 14 11 113
10 293 -1 150 -1 280 -1 290 1 28 24 19 60 -26 18 -23 54 -67 81 -97 26 -30
116 -136 200 -235 192 -226 219 -255 236 -248 12 4 14 80 14 438 0 470 3 445
-54 445 -45 0 -46 -8 -46 -322 0 -242 -3 -298 -13 -298 -8 0 -56 50 -108 111
-52 62 -99 117 -104 123 -6 6 -82 94 -169 196 -87 102 -164 188 -171 192 -6 4
-17 2 -23 -4z"/>
<path d="M1056 949 c-14 -11 -26 -25 -26 -30 0 -9 29 -58 170 -284 20 -33 59
-96 86 -140 l49 -80 3 -155 c2 -88 8 -160 14 -167 13 -16 70 -17 86 -1 8 8 12
58 12 160 0 159 -4 144 67 263 17 28 46 75 65 105 108 167 168 272 168 292 0
31 -18 48 -50 48 -28 0 -17 14 -221 -302 -38 -60 -75 -108 -83 -108 -17 0 -25
11 -103 135 -156 249 -182 285 -204 285 -3 0 -18 -9 -33 -21z"/>
<path d="M2853 943 c-11 -16 -40 -77 -65 -138 -101 -241 -212 -503 -233 -550
-49 -111 -58 -144 -45 -160 15 -18 74 -20 87 -2 5 6 26 50 47 97 20 46 43 88
49 92 7 4 91 8 188 8 195 0 192 1 219 -70 8 -19 24 -59 37 -88 23 -51 25 -53
60 -50 62 5 62 20 0 174 -69 169 -164 402 -176 429 -39 88 -51 115 -51 120 0
3 -10 27 -21 53 -12 26 -28 62 -36 80 -17 39 -36 41 -60 5z m50 -255 c8 -18
38 -89 67 -157 41 -98 49 -125 38 -132 -17 -11 -239 -11 -256 -1 -13 9 -11 22
13 77 98 230 105 245 115 245 4 0 14 -15 23 -32z"/>
<path d="M1952 935 c-23 -14 -49 -40 -58 -57 -21 -40 -44 -130 -44 -171 0 -71
-35 -160 -110 -287 -57 -95 -79 -142 -96 -205 -17 -62 -18 -107 -2 -123 16
-16 65 -15 75 1 4 6 8 56 8 109 0 115 -3 110 130 191 67 40 98 67 123 102 40
58 40 98 2 103 -34 5 -50 20 -50 47 0 13 -6 38 -14 56 -13 30 -12 37 4 69 9
19 20 47 24 63 3 15 10 27 16 27 22 0 83 -108 99 -178 19 -76 1 -166 -61 -300
-61 -136 -97 -242 -81 -242 15 0 114 186 141 264 27 81 55 232 46 258 -3 10
-2 23 2 29 15 25 24 -21 24 -132 0 -95 -5 -133 -25 -203 -27 -94 -31 -145 -14
-179 19 -37 52 -68 88 -83 44 -18 190 -19 197 -1 2 7 -1 44 -7 82 -7 39 -15
162 -19 275 -4 113 -12 223 -17 246 -24 102 -97 200 -178 239 -22 10 -67 20
-100 22 -51 3 -67 0 -103 -22z m338 -284 c0 -17 5 -33 10 -36 13 -8 13 -109 0
-149 -5 -17 -14 -52 -21 -78 -6 -26 -18 -53 -25 -59 -18 -15 -18 -10 1 88 8
43 15 120 15 171 0 54 4 92 10 92 6 0 10 -13 10 -29z"/>
<path d="M3390 934 c-14 -35 -13 -809 0 -835 13 -23 71 -26 89 -6 7 10 12 132
13 388 l3 374 102 3 c87 2 109 0 142 -18 77 -39 116 -122 96 -203 -20 -78 -94
-137 -173 -137 -49 0 -76 -27 -75 -76 1 -27 15 -51 75 -121 40 -47 98 -116
128 -152 58 -68 95 -86 126 -60 29 24 13 55 -86 174 -55 66 -100 123 -100 127
0 4 25 20 56 35 103 50 159 137 159 248 -1 85 -24 141 -84 202 -67 68 -123 83
-307 83 l-154 0 -10 -26z"/>
<path d="M4115 948 c-3 -7 -4 -204 -3 -438 l3 -425 33 -3 c64 -6 62 -22 62
437 0 311 -3 420 -12 429 -16 16 -77 15 -83 0z"/>
</g>
</svg>
