<?xml version="1.0" encoding="UTF-8"?>
<svg version="1.1" viewBox="0 0 2048 651" width="745" height="237" xmlns="http://www.w3.org/2000/svg">
<path transform="translate(507,311)" d="m0 0 2 2-9 10-4 8-1 15v102h52l81 2-1-71-1-44-4-8-9-10-2-4 88-1-6 7-7 8-3 6-1 6-1 24v49l1 199 3 10 9 14v1h-12l-63-4 4-8 2-13 1-12 1-97-1-3-84-1-40-1-7-1 1 12v105l3 10 7 10v2l-17-1-53 1-2-2 6-7 4-8 2-8v-195l-1-80-3-8-5-6-8-5 1-2 53-1z" fill="#0D3736"/>
<path transform="translate(935,312)" d="m0 0h3l-2 4-9 7-3 5-1 13v126l5-5 16-24 8-10 14-17 12-17 14-18 10-13 13-17 7-10 4-8-1-7-4-5 1-2 70-1h19v2l-11 6-10 9-13 14-7 8-12 14-9 11-11 13-11 12-8 10-12 14-9 13-6 8-4 5 2 6 8 12 9 12 14 19 16 21 14 19 13 20 10 15 14 20 10 13 8 10 10 12 1 3-22 1-25-1-11-2-8-4-10-9-9-10-17-26-11-16-28-38-14-18-11-14-3-5h-2l-8 10-7 6-7 4v88l1 13 3 10 7 9v1l-56 1h-22l5-5 4-6 2-6 1-8v-206l-1-61-2-9-6-10-8-6-3-3h64z" fill="#0D3736"/>
<path transform="translate(1557,308)" d="m0 0h13l19 2 19 5 17 8 11 8 13 13 6 10 1 7-6 9-11 12-7 8-4 5-3 5-3-3-4-11-8-11-10-7-14-7-19-5-10-1h-9l-13 2-10 5-7 9-4 10-1 4v13l3 10 6 10 9 8 23 12 31 13 23 11 14 8 14 12 8 9 8 13 5 14 2 13v25l-3 15-8 16-9 12-11 12-7 7-13 8-19 9-12 4-16 3-17 1-21-2-25-6-16-7-10-6-10-8-16-16-3-4v-8l4-11 7-12 11-13 10-14 3-5h2l-1 12 4 13 9 15 10 11 14 8 8 4 12 3 8 1h23l10-3 11-6 6-5 7-11 3-11v-13l-3-12-6-10-4-5-12-9-15-8-27-11-21-9-14-8-11-9-10-10-9-14-7-15-4-13-1-5v-18l3-16 7-16 9-14 11-12 7-7 15-9 15-6 12-3z" fill="#0D3736"/>
<path transform="translate(1788,312)" d="m0 0h13l6 3 10 9 7 9 8 16 15 35 13 32 8 19 12 33 11 29 13 33 9 25 10 26 11 26 8 15 7 10v2h-34l-15-2-10-5-9-9-6-10-6-16-10-36h-17l-23 1-70 1-3 3-11 27-13 40-2 3-11 2-27 2h-18l1-4 7-10 8-16 5-11 13-34 11-28 12-31 17-46 10-27 10-26 11-31 13-32 4-13 1-13zm11 94-4 9-6 18-8 20-9 27-7 27v4l27-1h45l-2-11-6-19-19-57-7-14z" fill="#0D3736"/>
<path transform="translate(289,311)" d="m0 0h15l21 2 17 4 15 6 17 10 13 12 8 9 6 12-2 5-9 10-15 15-6 10h-2l-2-12-6-9-7-6-16-9-19-8-12-3-15-1-18 2-15 4-16 8-11 8-8 8-10 13-8 13-8 19-4 17-1 7v34l4 22 6 17 8 14 9 12 11 11 10 7 16 8 11 4 13 3 10 1h18l15-2 17-5 15-8 13-9 13-11 11-11 4-1 1 3v30l-1 19-7 8-12 10-15 10-15 7-18 6-12 3-8 1h-33l-23-4-20-6-20-9-12-7-9-7-10-9-8-8-12-16-9-15-8-18-7-25-3-21v-27l3-21 6-22 8-20 9-17 11-16 11-12 14-14 13-10 14-8 20-8 17-5 17-3z" fill="#0D3736"/>
<path transform="translate(991,13)" d="m0 0h26l25 4 14 5 13 8 10 9 11 13 10 14 8 16 5 17 1 5v11h-2l-2 4-4 3 16 2-1 15-3 16-5 14-7 13-10 13-11 14-8 8-14 8-15 5-18 3-6-1 1-4 17-16 10-10 7-8 16-17 8-12 1-5-7 1-9 5-13 11-11 12-7 9-4 5-10 8-5 6-2-1v-10l2-19 3-12 4-8 12-14 11-10 11-7 15-6 20-6-4-1h-19l-14 3-11 5-11 7-15 13-7 8-1 2-4-2 2 5-2 1-7-12-8-9-13-10-15-7-15-4-25-3-11-3-7-5v-7l5-15 16-32 9-12 9-10 8-7 16-9 16-6z" fill="#7AD3BF"/>
<path transform="translate(1445,305)" d="m0 0h2l-1 7-5 18-9 41-4 16h-3l-5-14-4-5-13-5-10-2h-39l-2 1-1 3v160l1 73 2 15 5 10 8 8-1 3-78 1 2-4 5-12 1-4 1-18 1-69v-168l-34 1-14 1-13 4-8 6-7 7-8 10h-4l3-15 8-31 6-22 5-10 3 1 57 1h102l35-2 13-4z" fill="#0D3837"/>
<path transform="translate(729,312)" d="m0 0 49 2h43l-5 6-5 4-6 9-2 9-1 16v82l1 148 1 18 3 11 7 11 4 5v2h-77l-8-1 6-7 5-8 3-9 2-15v-256l-5-12-5-6-10-7z" fill="#0D3736"/>
<path transform="translate(1119,313)" d="m0 0 80 1h4l-2 4-7 12-3 14-2 30-1 50v155l1 25 3 13 6 11 4 5v1h-53l-13-1-1-129v-117l1-29v-18l-3-12-4-6-5-4z" fill="#0D3736"/>
<path transform="translate(899,121)" d="m0 0 16 1 26 5 15 4 13 7 13 11 10 10 8 11 3 10 3 20v11l-1 6-4-2-12-13-11-13-7-8-13-13-8-7-10-6-3-1 3 9 6 11 10 12 9 11 14 15 13 10 9 5 1 2-2 5h-14l-14-2-19-8-12-7-12-11-11-15-11-21-5-15-3-27z" fill="#092627"/>
<path transform="translate(1108,124)" d="m0 0h14l-1 15-3 16-5 14-7 13-10 13-11 14-8 8-14 8-15 5-18 3-6-1 1-4 17-16 10-10 7-8 16-17 8-12 1-5-7 1-9 5-13 11-11 12-7 9-4 5-10 8-5 6-2-1v-10l2-19 3-12 4-8 12-14 11-10 11-7 15-6 14-4z" fill="#0D3837"/>
<path transform="translate(991,13)" d="m0 0h26l25 4 14 5 13 8 10 9 11 13 10 14 8 16 5 17 1 5v11h-2l-2 4-4 3 7 1v1l-11 2h-10l2-2-15-2v-1h6v-2l-6-2-6-26-18-27-7-9-7-8-5-4v-2h-2v-2l-4-2-5-3-15-2-13 1-11 3-13 7h-2v2l-16 6-15 8-8 8h-2l-1 4-5 6-1 3-4 2-2 4-2-1 11-24 10-14 11-12 10-8 17-9z" fill="#BAEFE1"/>
<path transform="translate(496,493)" d="m0 0 119 1 14 1 3 3 1 9h2l5 16 3 24 3 18 2 11 2 3v9l3 6-1 5 2 9 3 4v3l3-1 3 7-2 1v2h2v4l10 2h8l-3-9-1-13 2-11 1-12h1l1 26 3 10 9 14v1h-12l-63-4 4-8 2-13 1-12 1-97-1-3-84-1-40-1-8-1-1 2v-4z" fill="#092527"/>
<path transform="translate(1348,364)" d="m0 0h1v53l2 108 1 73 2 15 5 10 8 8-1 3-78 1 2-4 5-12 1-4 1-18 2-68h1l3 15 1 14v12h2l2 10 2 7 4 2 3 5 1 6 5 1 6 3 3-3h7l-2 3-1 5 5-3 1-5 3-1v-2h2v-229z" fill="#0A2729"/>
<path transform="translate(205,339)" d="m0 0h2l-1 5-8 7-7 8h-2v2h-2l-2 4-8 11-9 13-4 7h-2l-1 5-5 8-8 19-5 16-3 19-1 9v17l3 12 3 8 3 12 5 13 3 4 2 5 1 7 3 7 5 15 6 8 6 6v2l4 2 10 6v2l6 2 16 8 11 6 1 4 9 3 8 4 23 6 9 2 3 1 13 1h18l16-3 22-8 4 1-1 3-20 7-15 4-8 1h-33l-23-4-20-6-20-9-12-7-9-7-10-9-8-8-12-16-9-15-8-18-7-25-3-21v-27l3-21 6-22 8-20 9-17 11-16 11-12 14-14z" fill="#091C1F"/>
<path transform="translate(450,367)" d="m0 0h1l1 53 1 7-1 6 2 6 2 21 1 1v7l-1 1 1 6v13l2 11-3 8 1 16v10l-1 2 2 30 2 13v12h-2l2 7v14h-2l-2 13-1 9-16 2-5-1 6-8 4-8 2-8v-101l1-20 1-72h1z" fill="#092527"/>
<path transform="translate(900,122)" d="m0 0h4l3 24 4 10 2 9 5 12 6 10 9 11 3 3 7 2 7-3v-6l-10-17-4-11-1-10 3 3 6 12 11 14 11 13 12 13 10 8 10 6 4 4-2 5h-14l-14-2-19-8-12-7-12-11-11-15-11-21-5-15-2-19z" fill="#061A1D"/>
<path transform="translate(1478,531)" d="m0 0h2l-1 12 2 10h-9l-4 4h-2l-2 5-6 8-3 5-2 8-3 4 7 2 4 9 10 6 2 5 8 7 9 6 5 2v2l17 3 12 3 17 2 11 2h15l16-4 5-2h5v2h-2v2l-14 5-16 3-17 1-21-2-25-6-16-7-10-6-10-8-16-16-3-4v-8l4-11 7-12 11-13 10-14z" fill="#092527"/>
<path transform="translate(1085,163)" d="m0 0 2 1-1 7h-2l-3 5 2 1-3 7-1 5 2 9 11-1-1 4-7 9-7 7-14 8-15 5-18 3-6-1 1-4 17-16 10-10 7-8 16-17z" fill="#092628"/>
<path transform="translate(611,313)" d="m0 0h26l47 1-2 2-4 1-31 1-17 1-6 2 3 3 4 9 1 5v112l-3 4h-37l-22-1h-68l-6-1v-3h95l37 1-1-71-1-44-4-8-9-10z" fill="#091F21"/>
<path transform="translate(953,496)" d="m0 0 3 1 8 10v2h2l10 13 7 8 4 5 1 3 2 1v3h2v2l3 1 2 5h2l5 6v2l4 2v2l3 3 3 6 4 5 8 14 6 10 8 11 9 10 7 5 6 2 24 2h18l-2-7-8-11-8-12-8-11-4-6-7-11-10-16-7-10-5-7 1-3 5 5 13 20 10 15 14 20 10 13 8 10 10 12 1 3-22 1-25-1-11-2-8-4-10-9-9-10-17-26-11-16-28-38-14-18-9-11z" fill="#0A1F21"/>
<path transform="translate(955,132)" d="m0 0 5 1 12 7 15 14 9 10 5 9 2 7 3 20v11l-1 6-4-2-12-13-11-13-7-8-13-13-8-7-8-5-1-4 5 1 9 7 11 9 5 3 1 1 7-1 5-7h2v-6l-9-10-8-7-10-6-4-2z" fill="#08181B"/>
<path transform="translate(496,493)" d="m0 0 119 1 14 1 3 3v110l-1 9 2 3 1 5 3 3 17 2 4 2v1h-26l-13-1 4-8 2-13 1-12 1-97-1-3-84-1-40-1-8-1-1 2v-4z" fill="#0A2023"/>
<path transform="translate(1140,314)" d="m0 0h43l10 1 2 2-2 9-3 7-4 27-2-4v-2h-2l-2-6-5-2-10-1-6-2-6-3-3-8 1-9 4-8h-15z" fill="#174F4C"/>
<path transform="translate(750,362)" d="m0 0h1l2 128 1-28h1v95l2 28 1 10-2 11-2 13-2 6 1 4 5 2 3 3-20 1-8-1 6-7 5-8 3-9 2-15z" fill="#1C4341"/>
<path transform="translate(1078,319)" d="m0 0h18l-3 5-8 7-10 10-7 6-15-5-10-3-3-2h-3l-4-4v-7l1-2 7-3 7-1h17z" fill="#154C4A"/>
<path transform="translate(1512,325)" d="m0 0 6 1 2 3 1 3 2 4-1 7-3 3 1 9-2 5h-2v2l-4 1-2 4-4 1-7 2v-2h-2v-2h-3l-1-3 2-7-5-3-4-2 2-4-1-3 4-6h2v-2l10-8 7-2z" fill="#164D4B"/>
<path transform="translate(1621,328)" d="m0 0 10 3 12 11 7 9 3 6-2 7-10 11-6-1-6-7-4-9-3-3-4-11-2-9-3-1 5-5z" fill="#164D4B"/>
<path transform="translate(1926,308)" d="m0 0h18l8 4 7 8 6 12v14l-5 10-9 8-10 3h-14l-8-3-8-7-6-11-1-4v-9l4-9 7-9 9-6zm2 6-10 5-5 7-1 3v15l3 8 6 7 7 3h15l8-3 5-4 3-5 1-4-1-13-5-10-5-6-6-3z" fill="#173333"/>
<path transform="translate(1137,368)" d="m0 0 3 3v8h-2v20l3 172-1 58 7 3v1h-11l-1-129v-117l1-15z" fill="#123837"/>
<path transform="translate(1463,419)" d="m0 0 2 1v2h2l8 19 8 14 9 10 13 9 17 9 48 20 13 8 11 8 7 9 5 10 3 13v15l-3 10-6 8-9 8-6 2 1-4 8-6 7-11 3-11v-13l-3-12-6-10-4-5-12-9-15-8-27-11-21-9-14-8-11-9-10-10-9-14-7-15-2-6z" fill="#0A1F22"/>
<path transform="translate(1465,552)" d="m0 0 1 2-13 19-5 12-1 7 9 10 5 5v2l4 2 10 9 17 8 28 7 13 2h30l20-5 5-2h5v2h-2v2l-14 5-16 3-17 1-21-2-25-6-16-7-10-6-10-8-16-16-3-4v-8l4-11 7-12 6-7z" fill="#091C1F"/>
<path transform="translate(916,321)" d="m0 0 1 2h2l2 5-1 9-1 25-1 10-2 2-6 1v-2h-2l-3-4v-12l-2-8v-5l-2-7 2-9 3-1 1-3z" fill="#164D4B"/>
<path transform="translate(1348,364)" d="m0 0h1v53l2 108 1 73 2 15 5 10 8 8v2h-7l-3-6-6-10-3-13-1-68v-167z" fill="#0B2225"/>
<path transform="translate(1930,318)" d="m0 0h13l5 4 3 9-1 12-3 8-5 4h-4l2-21v-8l-4-1-2 6-1 18-1 6-5-2-3-5v-26l3-3z" fill="#144240"/>
<path transform="translate(1850,552)" d="m0 0h9l4 2 5 11 2 10h2l6 14 1 5 4 10 1 4 6 9 8 7v3l15 2 5 2-1 2h-12l-10-3-8-6-8-9-7-14-9-30-4-15-22-1 3-2z" fill="#092527"/>
<path transform="translate(1732,479)" d="m0 0 1 2-7 20-7 18-7 22-10 22-16 40-8 17-5 8v4l5 1v1h-14l2-4 8-13 8-16 10-25 13-34 15-38 8-22z" fill="#0B1F21"/>
<path transform="translate(729,312)" d="m0 0 21 1 5 1v3h-9l-4 1 8 11 4 11 1 118-1 43-1 19h-1l-1-97-1-61-1-23-5-12-5-6-10-7z" fill="#061B1E"/>
<path transform="translate(1883,484)" d="m0 0 4 2 9 24 13 33 11 31 14 33 8 15 6 8v3h-4l-3-7-4-4-9-16-11-27-4-13-4-9-7-21-6-14-4-8-4-14-5-13z" fill="#091F22"/>
<path transform="translate(171,579)" d="m0 0 7 6 1 3 4 2 10 6v2l6 2 16 8 11 6 1 4 9 3 8 4 23 6 9 2 2 2-14-1-16-3-24-8-19-10-13-10-8-7-7-8-6-7z" fill="#092527"/>
<path transform="translate(1473,554)" d="m0 0 10 2 9 15 7 8-1 3-5-4v-2l-4-2-6-9v-2l-3-1h-7l-5 5h-2v9l6 11 10 10 7 5 9 5v1l7 1 2 3-1 6-4 1-8-5v-4l-8 1-3-6-4-2-2-4-6-2-6-10v-3h2l-1-5h-3l-1-9 9-14z" fill="#092527"/>
<path transform="translate(448,515)" d="m0 0h2l1 8v19l1 35v29l-2 13-3 8-2 7-9 1-2-2 6-7 4-8 2-8 1-93z" fill="#081D20"/>
<path transform="translate(1046,536)" d="m0 0 5 5 13 20 10 15 14 20 10 13 8 10 10 12 1 3h-20l-21-1v-2l-2-1h30l-2-7-8-11-8-12-8-11-4-6-7-11-10-16-7-10-5-7z" fill="#091E20"/>
<path transform="translate(872,494)" d="m0 0h2v89l-1 31-3 10-4 10h-9l5-5 4-6 2-6 1-8 1-85 1-27z" fill="#061B1E"/>
<path transform="translate(492,500)" d="m0 0h2l2 8v105l3 10 7 10v2h-6l-1-3-2-1-1-3h-2l-2-12z" fill="#0C2829"/>
<path transform="translate(496,449)" d="m0 0h95l30 1 8 1v3h-37l-22-1h-68l-6-1z" fill="#07191C"/>
<path transform="translate(800,452)" d="m0 0h1l2 136 1 18 2 11-2 2-4-11-1-6v-148z" fill="#0B2A2B"/>
<path transform="translate(955,132)" d="m0 0 5 1 12 7 15 14 5 5v2h-2l3 11-3 7-5 5h-5l-7-6-5-4-2-4 4 1 2 2 7-1 5-7h2v-6l-9-10-8-7-10-6-4-2z" fill="#081E20"/>
<path transform="translate(1029,15)" d="m0 0 17 3 10 4 13 8 10 9 11 13 10 14 6 12-3-1-6-8-3-5-8-11v-2h-2l-3-4v-2h-2l-3-3-10-7v-2l-5-1-7-3-10-5v-2l-5-1-10-4z" fill="#FDFDFD"/>
<path transform="translate(1017,346)" d="m0 0 1 3-10 12-12 16-9 11-11 15-10 14-7 10h-2l-2 4-10 12-2-1 3-7 12-14 10-13 13-18 14-18 13-17 4-5z" fill="#082225"/>
<path transform="translate(1062,193)" d="m0 0v3l-7 8-7 9v9l3 5-3 3-18 3-6-1 1-4 17-16 7-7 8-7z" fill="#081B1E"/>
<path transform="translate(1232,311)" d="m0 0 2 1-3 10-6 21-4 16-5 17h5l6-8 6-4 7-2-1 3-9 6-8 8-8 10h-4l3-15 8-31 6-22z" fill="#0D2325"/>
<path transform="translate(138,489)" d="m0 0 2 4 2 8 3 8 3 12 5 13 3 4 2 5 1 7 3 7 4 13-1 2-7-11-7-15-8-23-4-19z" fill="#092527"/>
<path transform="translate(309,356)" d="m0 0 11 2 21 10 15 9 8 7 4 6v2h7l2-4 4-4h2l-1 5-7 7-6 10h-2l-2-12-6-9-7-6-16-9-19-8-7-3z" fill="#0B2022"/>
<path transform="translate(1298,600)" d="m0 0 2 2v8h2v2l2 1 1 7 2 6 4 2v2l6 1 2 2-1 1-30 1 2-4 5-12z" fill="#071E20"/>
<path transform="translate(1799,404)" d="m0 0 5 2 1 5 3 1 8 16 7 23 7 20 5 13v10l-4-5-17-51-7-20-5-9-3-3z" fill="#092325"/>
<path transform="translate(448,417)" d="m0 0h1l2 29v55l-1 14h-2l-1 55h-1v-61l1-20z" fill="#0B2325"/>
<path transform="translate(1137,526)" d="m0 0 2 4 1 30 1 11-1 58 7 3v1h-11v-37z" fill="#061317"/>
<path transform="translate(430,314)" d="m0 0h10l9 1-1 4-3 2 5 12-1 76-2-2-1-68-3-10-6-8-8-5z" fill="#07171B"/>
<path transform="translate(393,543)" d="m0 0h2l1 3v30l-1 12-3-1 1-27-12-1-14 11-7 5-2-1 5-5 10-8 10-9 8-8z" fill="#091E20"/>
<path transform="translate(1850,552)" d="m0 0h9l4 2 5 11 3 16 9 27 1 5h-3l-6-12-9-30-4-15-22-1 3-2z" fill="#091E20"/>
<path transform="translate(984,217)" d="m0 0 7 4 10 6 1 2-2 5h-14l-3-1v-2l-5-1-3-2v-2h-2l-2-4 2-2 11-1z" fill="#092628"/>
<path transform="translate(1185,427)" d="m0 0h1l1 14-1 133h-1l-1-11v-130z" fill="#06161A"/>
<path transform="translate(921,524)" d="m0 0h2l1 76 1 13 3 10 7 9v1h-10v-2l-2-1 2-1-1-9-3-7-1-18v-50z" fill="#0F3434"/>
<path transform="translate(446,339)" d="m0 0h1l1 68 1-68h1l1 19-1 69h-1l-1 62h-1l-1-74z" fill="#154140"/>
<path transform="translate(448,515)" d="m0 0h2l1 8v19l1 35-1 28h-1v-30h-2l-1-5v-53z" fill="#061216"/>
<path transform="translate(353,577)" d="m0 0 2 1-14 8-9 4-15 4h-33l-7-1-1-3h31l15-2 17-5 10-5z" fill="#0D292A"/>
<path transform="translate(849,314)" d="m0 0 16 1 7 1v1l-10 1 7 11 3 7v66h-1l-2-52-3-17-6-10-8-6z" fill="#091D20"/>
<path transform="translate(1186,454)" d="m0 0h1l1 125 1 33-2 2-2-9-1-20v-22h1z" fill="#0E2E2E"/>
<path transform="translate(1745,556)" d="m0 0 2 3-9 21-12 36-5 14-5 1-2-3 4-2 5-14 11-33 7-17z" fill="#092425"/>
<path transform="translate(1465,552)" d="m0 0 1 2-13 19-5 12-1 7 9 10 5 5v2l4 2-4 1-7-6-8-8-3-4v-8l4-11 7-12 6-7z" fill="#081A1D"/>
<path transform="translate(1054,139)" d="m0 0 4 1-8 8h-2l-2 4-3 1-3 4h-2l-2 6-4 4h-2l-3 9v5l-2 4h-3l-1 2v-12l4-8 12-14 11-10z" fill="#0D2D2E"/>
<path transform="translate(1939,324)" d="m0 0 4 1 3 5 1 6 2-10h1l1 11-3 12-4 5-6 1 2-21v-8z" fill="#123434"/>
<path transform="translate(935,156)" d="m0 0 3 3 6 12 11 14 11 13 12 13-3 1-6-5-3-1-9-11-8-10-5-7v-2h-2l-5-9-2-5z" fill="#0A1C1F"/>
<path transform="translate(492,354)" d="m0 0h1l2 10v82l-2-2-1-28z" fill="#143A3A"/>
<path transform="translate(493,569)" d="m0 0h2l1 44 3 10 7 10v2h-6l-1-3-2-1-1-3h-2l-2-12v-19z" fill="#0B2124"/>
<path transform="translate(1590,455)" d="m0 0 6 1 21 11 11 8 12 11 8 11 4 7-2 4-7-12-12-14-14-11-18-10-9-4z" fill="#0D2A2B"/>
<path transform="translate(1756,407)" d="m0 0 3 1-2 9-13 33-9 26-3-2 3-11 11-30 9-23z" fill="#0B2527"/>
<path transform="translate(1922,581)" d="m0 0 2 2 10 24 8 15 6 8v3h-4l-3-7-4-4-9-16-9-22 3-1z" fill="#0B2728"/>
<path transform="translate(1732,479)" d="m0 0 1 2-7 20-7 18-5 17h-2v-4h-2l3-10 11-29 5-12z" fill="#0D2D2E"/>
<path transform="translate(616,313)" d="m0 0h21l47 1-2 2-4 1-31 1-17 1-8 2-2-3 12-2v-2h-16z" fill="#092426"/>
<path transform="translate(729,312)" d="m0 0 21 1 5 1v3h-9l-4 1 8 11 2 4-1 29h-1l-1-23-5-12-5-6-10-7z" fill="#0D2829"/>
<path transform="translate(496,449)" d="m0 0h95v1l-41 1v1l-48 1-6-1z" fill="#092123"/>
<path transform="translate(871,404)" d="m0 0 2 4 1 17v29l-2 1-1 39h-1v-85z" fill="#0C2F30"/>
<path transform="translate(871,454)" d="m0 0 2 1 1 13v25l-2 4-1 27-1 53h-1v-60l1-23z" fill="#163F3E"/>
<path transform="translate(1709,532)" d="m0 0h3l1 6-4 9-11 26h-4l3-10 8-21z" fill="#0A2325"/>
<path transform="translate(1187,360)" d="m0 0h1v64l-1 17h-1l-1-8h-1v-22l2-41z" fill="#153837"/>
<path transform="translate(1473,554)" d="m0 0 10 2 9 15 7 8-1 3-5-4v-2l-4-2-6-9v-2l-3-1h-7l-5 5h-3l2-5z" fill="#092729"/>
<path transform="translate(1019,193)" d="m0 0h2l-1 4h2v2l9-1v2h2v3l-10 8-5 6-2-1v-10l2-6z" fill="#123434"/>
<path transform="translate(913,125)" d="m0 0h6l9 6v3l4 2-1 3-9 1-7-3-2-10z" fill="#0D3736"/>
<path transform="translate(1809,554)" d="m0 0h23l-2 2-11 1h-72v-2z" fill="#0A2627"/>
<path transform="translate(872,349)" d="m0 0h1l1 19v38l-3 3h-1l-1-6v-53h1l1 29z" fill="#123737"/>
<path transform="translate(927,313)" d="m0 0 4 1-4 2-24 1-1 1h-40l3-2-8-1v-1h56z" fill="#103233"/>
<path transform="translate(630,586)" d="m0 0h1l1 22-1 9 2 3 1 5 3 3 17 2 4 2v1h-13v-2l-15-1-3-2 1-13 1-9z" fill="#06191C"/>
<path transform="translate(1022,403)" d="m0 0h2l-1 4-9 11-11 13-9 14-2 2h-3l2-4 10-15 8-10z" fill="#0C2D2E"/>
<path transform="translate(975,401)" d="m0 0v3l-9 13-7 10h-2l-2 4-10 12-2-1 3-7 12-14 10-13 5-5z" fill="#0D2426"/>
<path transform="translate(927,201)" d="m0 0 5 1 1 3h2l5 5 15 10 8 6-1 2-16-8-11-8-8-9z" fill="#091B1E"/>
<path transform="translate(475,613)" d="m0 0 5 1 2 5 3 5v4l-2 1h-10l-1-3h-3v-2l-3-1 4-3 6-2v-2z" fill="#092527"/>
<path transform="translate(1078,156)" d="m0 0h5l-4 4-8 4-9 7-10 9-4 3-5-1v-2l5-3 3-3 12-9h2l1-2 4-3z" fill="#0C2D2E"/>
<path transform="translate(1702,629)" d="m0 0h10l1 3-14 2-17 1h-18v-1l9-1-1-3h12z" fill="#0F3333"/>
<path transform="translate(870,579)" d="m0 0h1l1 24h1v11l-3 10-4 10h-9l5-5 4-6 2-6 1-8z" fill="#0C2B2C"/>
<path transform="translate(1078,178)" d="m0 0 1 2-3 7-1 7-1 5 4 1 2 3 10-2-2 4-2 2v-2l-5 2-6-1-5-6v-11l2-3h2l1-4z" fill="#0E3937"/>
<path transform="translate(1079,178)" d="m0 0h2l-2 11 2 9 11-1-1 4-9 3-4-2-1-2-3-1-1-4 1-1 2-10z" fill="#092527"/>
<path transform="translate(1013,493)" d="m0 0 3 1 14 19 15 20-2 2-7-8-18-24-5-8z" fill="#0A2124"/>
<path transform="translate(1046,536)" d="m0 0 5 5 13 20 10 15 2 4-5-1-4-7-10-16-7-10-5-7z" fill="#0B282A"/>
<path transform="translate(1792,509)" d="m0 0h18l27 2-3 2h-34l3-1-1-1h-31v-1z" fill="#1A4140"/>
<path transform="translate(1631,604)" d="m0 0h2l-2 4-10 10-13 8-9 4-2-1 1-3 7-2v-2l10-5 13-10z" fill="#0B2B2C"/>
<path transform="translate(1880,613)" d="m0 0 4 2 6 7v2l5 2 8 2 10 1 5 2-1 2h-12l-10-3-8-6-8-9z" fill="#0A2426"/>
<path transform="translate(679,331)" d="m0 0 4 2-1 6-2 45-2-2v-39z" fill="#143938"/>
<path transform="translate(1199,314)" d="m0 0h4l-2 4-7 12-5 22h-1v-13l2-8 4-11-1-5z" fill="#0C2D2E"/>
<path transform="translate(1940,625)" d="m0 0 3 3 1 5 5-1v2h-34l2-2-2-2h21l4-1z" fill="#0E3232"/>
<path transform="translate(1731,595)" d="m0 0 1 2-11 33-5 1-2-3 4-2 5-14 5-16z" fill="#0C2C2D"/>
<path transform="translate(1102,315)" d="m0 0 2 1-2 4-8 6-10 10-8 10-4-1 4-6h2l2-4 4-2 2-4 9-8h2l2-4z" fill="#0C3132"/>
<path transform="translate(450,525)" d="m0 0h1v17l1 35-1 28h-1l-1-39v-39z" fill="#06191C"/>
<path transform="translate(795,314)" d="m0 0h26l-5 6-5 4-3 3-3-2 7-8-34-1v-1z" fill="#143736"/>
<path transform="translate(1784,441)" d="m0 0 1 4-8 22-3 9-3-1 1-7 8-21 2-5z" fill="#0C2829"/>
<path transform="translate(935,312)" d="m0 0h3l-2 4-9 7-4 2 1-6-22-1 1-2 25-1z" fill="#0C2426"/>
<path transform="translate(1120,314)" d="m0 0 12 1 2 2 4 10v10l-3-3-4-10-7-6z" fill="#091E20"/>
<path transform="translate(921,524)" d="m0 0h2v39l-1 29h-1l-1-47z" fill="#082426"/>
<path transform="translate(1232,311)" d="m0 0 2 1-3 10-6 21-1 6-3-2 1-8 5-18z" fill="#0A2426"/>
<path transform="translate(384,602)" d="m0 0 1 3-9 8-15 10-8 4h-2v-4l16-8 10-7 4-2v-2z" fill="#0D2E2F"/>
<path transform="translate(223,565)" d="m0 0 5 1 11 8 16 8v3l-6-1-10-5-13-10z" fill="#091F22"/>
<path transform="translate(871,338)" d="m0 0h1v64h-1l-2-52v-9z" fill="#06181B"/>
<path transform="translate(493,569)" d="m0 0h2l1 44 1 7-2 2-2-8z" fill="#061519"/>
<path transform="translate(1496,329)" d="m0 0 2 2-3 5h-2v2h-2l-2 4-5 4-8 12h-3l2-5 8-11z" fill="#0C2C2D"/>
<path transform="translate(1930,318)" d="m0 0h13l5 4-1 2-3-3h-10l-1 8h-2v-3l-4-1-1 16h-1v-20z" fill="#2A5954"/>
<path transform="translate(1732,479)" d="m0 0 1 2-7 20-3 7-3-1 2-9 6-16z" fill="#0A2426"/>
<path transform="translate(745,621)" d="m0 0 1 4 1 5 1 2 3 2-10 1-8-1 6-7 5-5z" fill="#0D2123"/>
<path transform="translate(216,390)" d="m0 0h3l-2 4-9 13-7 13-3-1 5-12 12-16z" fill="#0E3031"/>
<path transform="translate(447,570)" d="m0 0h1v5h2v30l-2 4-1-1z" fill="#091F21"/>
<path transform="translate(1603,572)" d="m0 0h2l-2 9-8 8-8 5-2-1 1-3 8-6 7-11z" fill="#092224"/>
<path transform="translate(1299,459)" d="m0 0h3l1 16h-2l1 7 2 1-1 8-4 2z" fill="#092527"/>
<path transform="translate(1239,362)" d="m0 0v3l-9 6-11 11-4-1v-6l6 1 6-8 6-4z" fill="#092628"/>
<path transform="translate(1137,490)" d="m0 0h1l1 24 1 1v45h-1l-1-30-1-4z" fill="#071E21"/>
<path transform="translate(770,315)" d="m0 0 43 1-4 2h-37l-16-1v-1z" fill="#071B1E"/>
<path transform="translate(1108,627)" d="m0 0 6 5-3 2h-14l-21-1v-2l-2-1h12l3 1h17z" fill="#06191C"/>
<path transform="translate(1606,549)" d="m0 0 1 2h2v15l-3 10-2 1 1-5-3 1 2-11z" fill="#081F22"/>
<path transform="translate(696,312)" d="m0 0 3 1-10 10-6 9-3 1 1-6 10-13z" fill="#0B1F22"/>
<path transform="translate(1047,211)" d="m0 0 1 2v9l3 5-3 3h-3l-2-4-3-3 1-6 5-5z" fill="#061A1D"/>
<path transform="translate(1139,622)" d="m0 0h1l1 6 3 1 26 1 3 1v2h-26l-8-4z" fill="#092527"/>
<path transform="translate(1825,469)" d="m0 0h4l4 9 2 6v10l-4-5-6-18z" fill="#0C2C2D"/>
<path transform="translate(939,448)" d="m0 0h2l-2 4-9 16-6 2v-3l8-11 5-7z" fill="#0B2A2B"/>
<path transform="translate(1873,456)" d="m0 0 3 1 10 26v2l-4-1-4-10-4-11z" fill="#0B2C2D"/>
<path transform="translate(1678,616)" d="m0 0 1 2-6 10v4l5 1v1h-14l2-4 7-11z" fill="#082123"/>
<path transform="translate(953,496)" d="m0 0 3 1 8 10v2h2l6 8-4 2-10-13-5-6z" fill="#0C2224"/>
<path transform="translate(1461,392)" d="m0 0h3l-1 10 2 15 1 5-4-2-2-9v-18z" fill="#0B2C2D"/>
<path transform="translate(944,490)" d="m0 0 1 4-11 12-7 4-3-1 17-16z" fill="#0C2D2E"/>
<path transform="translate(1742,448)" d="m0 0h1l-1 8-7 20-3-2 3-11 5-14z" fill="#082325"/>
<path transform="translate(1514,408)" d="m0 0h2l6 10 9 8 9 5v2l-6-2-11-7-7-9-2-4z" fill="#0D3031"/>
<path transform="translate(1590,455)" d="m0 0 6 1 21 11 1 4-28-14z" fill="#0B2627"/>
<path transform="translate(1934,320)" d="m0 0h10l5 4-1 13-2-2-3-9-9-5z" fill="#0A2123"/>
<path transform="translate(290,354)" d="m0 0h7l7 2v1l-14 1h-20l3-2 2-1z" fill="#0E2F2F"/>
<path transform="translate(507,311)" d="m0 0 2 2-9 10-4 7h-2l1-7 5-7 1-3z" fill="#0A1E20"/>
<path transform="translate(1657,533)" d="m0 0 2 4v19l-3 5h-1v-11l1-15z" fill="#092729"/>
<path transform="translate(230,325)" d="m0 0 3 1-2 3h-2v2l-12 5h-3v2h-2l2-5z" fill="#0C2C2D"/>
<path transform="translate(1478,531)" d="m0 0h2l-1 6-4 7-5 5h-3v3l-6 4 2-4 12-16z" fill="#143131"/>
<path transform="translate(1048,373)" d="m0 0h2l-1 4-11 13-4 3-3 1 2-4h2l2-4z" fill="#0B292A"/>
<path transform="translate(1054,139)" d="m0 0 4 1-8 8h-2l-2 4-7 3 2-4 7-8z" fill="#0B2426"/>
<path transform="translate(1075,131)" d="m0 0 2 3-7 4-10 2 1-4 8-4z" fill="#0B292A"/>
<path transform="translate(1189,615)" d="m0 0 4 4 5 9 4 5v1h-6l-7-14z" fill="#0C2224"/>
<path transform="translate(1756,407)" d="m0 0 3 1-2 9-5 12h-2l-1-3z" fill="#0C2C2D"/>
<path transform="translate(205,339)" d="m0 0h2l-1 5-8 7-7 6v-4l11-12z" fill="#081A1D"/>
<path transform="translate(869,618)" d="m0 0 1 4-4 12h-9l5-5 4-6z" fill="#0A2325"/>
<path transform="translate(1922,581)" d="m0 0 2 2 3 8v7l2 4-1 4-9-22 3-1z" fill="#0C282A"/>
<path transform="translate(1022,403)" d="m0 0h2l-1 4-9 11-3 3-4-1 10-11z" fill="#082022"/>
<path transform="translate(1682,601)" d="m0 0h4l-3 9-3 6-6 3 2-5z" fill="#0B2527"/>
<path transform="translate(806,621)" d="m0 0 4 1 8 11v2h-6l-6-11z" fill="#0D2527"/>
<path transform="translate(1046,536)" d="m0 0 5 5 10 15v2h-3l-10-15-3-4z" fill="#0A2627"/>
<path transform="translate(1463,419)" d="m0 0 2 1v2h2l6 15-1 2-3-1-6-15z" fill="#082123"/>
<path transform="translate(1030,170)" d="m0 0 2 4v19l-1 2-4-1v-10l2-6z" fill="#092527"/>
<path transform="translate(925,622)" d="m0 0 4 2 6 9h-10v-2l-2-1 2-1z" fill="#0A292A"/>
<path transform="translate(1137,368)" d="m0 0 3 3v8h-2v10l-1 10h-1v-27z" fill="#092627"/>
<path transform="translate(1030,322)" d="m0 0 1 4-3 7-8 13-1-3 3-7 6-11z" fill="#0D2C2D"/>
<path transform="translate(1932,335)" d="m0 0h1v14l-1 6-5-2-2-2 1-5 5 2v-10z" fill="#3A736E"/>
<path transform="translate(1445,305)" d="m0 0h2l-1 7-3 8h-3l1-9-3-1z" fill="#102B2C"/>
<path transform="translate(1820,330)" d="m0 0h2l6 10 3 7v4h-2l-9-17z" fill="#0B2628"/>
<path transform="translate(927,313)" d="m0 0 4 1-4 2h-44v-1l30-1z" fill="#1A504D"/>
<path transform="translate(1422,372)" d="m0 0h2l3 5 2 1-1 9h-3l-3-9z" fill="#091D20"/>
<path transform="translate(1199,314)" d="m0 0h4l-2 4-6 10-2-2 1-9-1-2z" fill="#173736"/>
<path transform="translate(348,624)" d="m0 0 4 1-1 3-15 5 1-4 8-4z" fill="#0A2325"/>
<path transform="translate(983,15)" d="m0 0h2v2l-13 5-8 4-7 4-3-1 16-9z" fill="#FEFEFE"/>
<path transform="translate(1914,568)" d="m0 0h4l4 11v4l-4-1-4-11z" fill="#0A2325"/>
<path transform="translate(390,551)" d="m0 0 3 2v7l-7-1-4-2z" fill="#092527"/>
<path transform="translate(1941,328)" d="m0 0 2 3v14l-3 6h-1v-9z" fill="#26635E"/>
<path transform="translate(492,597)" d="m0 0h1l1 17 4 13 1 5-2-1-1-3h-2l-2-12z" fill="#092527"/>
<path transform="translate(264,358)" d="m0 0h3v3l-12 4-8 3 2-4 5-3z" fill="#0D2F2F"/>
<path transform="translate(441,624)" d="m0 0 2 2 1 8-8 1-2-2 6-7z" fill="#112829"/>
<path transform="translate(1098,616)" d="m0 0 10 10-1 6h-18v-1l15-1-2-7-4-5z" fill="#092527"/>
<path transform="translate(1299,494)" d="m0 0h1l1 7 2 4 1 9-5-1z" fill="#092527"/>
<path transform="translate(1084,332)" d="m0 0h2l-2 4-8 10-4-1 4-6h2l2-4z" fill="#0B2627"/>
<path transform="translate(1085,163)" d="m0 0 2 1-1 7h-2l-3 5 2 1-5 1-1-4z" fill="#092729"/>
<path transform="translate(992,223)" d="m0 0 6 2 4 4-4 1h-8l-1-4z" fill="#154341"/>
<path transform="translate(750,585)" d="m0 0h1l1 7h1l-1 12-1 3-3 1z" fill="#0C2829"/>
<path transform="translate(447,407)" d="m0 0 3 1v19h-1l-1 7h-1z" fill="#071D1F"/>
<path transform="translate(986,386)" d="m0 0v3l-9 13-5 2 2-4 7-10z" fill="#0C2728"/>
<path transform="translate(376,336)" d="m0 0 5 3 11 11 3 4-1 2-15-15-3-2z" fill="#0F3233"/>
<path transform="translate(925,315)" d="m0 0 3 1-1 3-25-1 1-2z" fill="#082224"/>
<path transform="translate(995,230)" d="m0 0h6l-1 4h-14l-3-1 1-2z" fill="#0C282A"/>
<path transform="translate(1293,626)" d="m0 0h2l3 5-1 3-9 1 2-4z" fill="#0A1F21"/>
<path transform="translate(955,427)" d="m0 0 1 3-11 13-2-1 3-7z" fill="#071F21"/>
<path transform="translate(1138,337)" d="m0 0h1l1 5v11l-2 5h-1v-20z" fill="#092628"/>
<path transform="translate(986,451)" d="m0 0 2 3 7 12-1 3-4-4-5-9z" fill="#092728"/>
<path transform="translate(309,356)" d="m0 0 11 2 5 2-3 1v2l-11-3z" fill="#0D2A2B"/>
<path transform="translate(922,513)" d="m0 0h2v32h-1v-21h-2v-10z" fill="#49887D"/>
<path transform="translate(1719,507)" d="m0 0 3 1-2 9-3 4h-2l1-7z" fill="#0C2A2C"/>
<path transform="translate(1789,312)" d="m0 0h12l3 2-1 2-10-1-3 4-2-2z" fill="#071A1D"/>
<path transform="translate(393,588)" d="m0 0h2v7l-7 8-3 1 2-5 3-2z" fill="#0E3333"/>
<path transform="translate(1734,581)" d="m0 0 2 1-1 6-3 7-3 2 1-7z" fill="#082123"/>
<path transform="translate(1216,380)" d="m0 0 3 1-2 5-4 4-3-1 2-7z" fill="#0A1F22"/>
<path transform="translate(995,374)" d="m0 0 1 3-8 10-5 2 2-4 7-9z" fill="#082224"/>
<path transform="translate(376,559)" d="m0 0m-2 1 2 1-2 4-14 10-2-1 5-5 10-8z" fill="#081E21"/>
<path transform="translate(1939,324)" d="m0 0 4 1 3 5 1 7-3 3-3-12z" fill="#123F3D"/>
<path transform="translate(243,320)" d="m0 0 3 1-3 4-7 2-4-1v-2z" fill="#0F3030"/>
<path transform="translate(1518,593)" d="m0 0 6 1 12 3-2 2-12-1z" fill="#0D2D2E"/>
<path transform="translate(999,552)" d="m0 0 5 4v2l4 2v2l3 3 1 5-5-5-8-11z" fill="#092527"/>
<path transform="translate(1224,373)" d="m0 0h2l-2 4-5 5-4-1v-6l6 1z" fill="#0A282A"/>
<path transform="translate(1068,184)" d="m0 0 2 1-2 5-3 2-2 2-7 6-3 2 2-4 10-10z" fill="#112E2F"/>
<path transform="translate(687,629)" d="m0 0 4 1 3 6h-12l5-5z" fill="#0E2628"/>
<path transform="translate(353,577)" d="m0 0 2 1-14 8-3 1 1-4 10-5z" fill="#082224"/>
<path transform="translate(208,545)" d="m0 0h2l8 11 2 3-3 1-8-10z" fill="#0A282A"/>
<path transform="translate(1725,495)" d="m0 0h1v6l-3 7-3-1 2-9z" fill="#082224"/>
<path transform="translate(1949,326)" d="m0 0h1l1 11-3 12-1-3 1-16z" fill="#5A8F88"/>
<path transform="translate(1670,627)" d="m0 0 2 3 1 2 5 1v1h-14l2-4z" fill="#061619"/>
<path transform="translate(682,618)" d="m0 0h2l4 8v4l-2 2-4-9z" fill="#0A2223"/>
<path transform="translate(747,610)" d="m0 0 3 4-2 9-1 2-2-1-1-1-1-2z" fill="#0D2527"/>
<path transform="translate(299,591)" d="m0 0h11l7 2v1h-18z" fill="#082325"/>
<path transform="translate(1224,333)" d="m0 0h2v7l-2 9-3-2 1-8z" fill="#071B1E"/>
<path transform="translate(1806,316)" d="m0 0 5 2 8 8v4h-2l-4-6-7-6z" fill="#081F22"/>
<path transform="translate(1012,570)" d="m0 0 5 4 4 8 5 8h-3l-3-6-8-11z" fill="#092527"/>
<path transform="translate(1643,494)" d="m0 0 4 1 5 9-2 4-7-12z" fill="#0E2B2C"/>
<path transform="translate(381,384)" d="m0 0h2l-1 5-7 6v-2l-2-1h2l2-4z" fill="#0B2B2D"/>
<path transform="translate(255,583)" d="m0 0 11 3 4 2-6 1-9-2-1-2z" fill="#133737"/>
<path transform="translate(393,560)" d="m0 0h1l1 28-3-1z" fill="#092628"/>
<path transform="translate(1745,556)" d="m0 0 2 3-5 11-3-1 2-7z" fill="#0A2A2B"/>
<path transform="translate(1940,621)" d="m0 0 5 5 3 4v3h-4l-4-8z" fill="#07191C"/>
<path transform="translate(1907,545)" d="m0 0 3 1 2 6v5h-3l-3-9z" fill="#081D1F"/>
<path transform="translate(1013,493)" d="m0 0 3 1 7 10-2 3-7-10z" fill="#082224"/>
<path transform="translate(1636,484)" d="m0 0 4 2 5 7-3 2-7-8z" fill="#0B2224"/>
<path transform="translate(1017,207)" d="m0 0 4 1 2 1-2 5-4 3z" fill="#082023"/>
<path transform="translate(1883,484)" d="m0 0 4 2 3 10h-2l-1 2-4-11z" fill="#082224"/>
<path transform="translate(1590,455)" d="m0 0 6 1 8 4-1 3-13-6z" fill="#092426"/>
<path transform="translate(216,390)" d="m0 0h3l-2 4-5 6-3-1z" fill="#0A292B"/>
<path transform="translate(384,602)" d="m0 0 1 3-9 8-3 1 2-4 4-4h2v-2z" fill="#0B2C2D"/>
<path transform="translate(1604,542)" d="m0 0h3l1 9h-1l-1 8h-1z" fill="#0B2729"/>
<path transform="translate(1222,346)" d="m0 0h1l-1 10-2 3h-2l2-12z" fill="#0B2022"/>
<path transform="translate(1185,598)" d="m0 0 1 4h2l1 2v8l-2 2-2-9z" fill="#0A1F22"/>
<path transform="translate(1784,441)" d="m0 0 1 4-3 8h-3l1-6 2-5z" fill="#081E21"/>
<path transform="translate(1562,443)" d="m0 0 6 1 9 4v2l-6-1-9-5z" fill="#0D2C2D"/>
<path transform="translate(1061,357)" d="m0 0h2l-1 5-5 5-3-1z" fill="#082224"/>
<path transform="translate(1138,357)" d="m0 0h1v11h-2l-1 4v-14z" fill="#1C4946"/>
<path transform="translate(1071,347)" d="m0 0h2l-2 4-7 8-2-3z" fill="#0E3132"/>
<path transform="translate(1451,598)" d="m0 0 7 6 3 3v2l4 2-4 1-2-1-2-5-5-5z" fill="#06181B"/>
<path transform="translate(1788,312)" d="m0 0 2 4v7l-3 5-1-2 1-13z" fill="#2C5855"/>
<path transform="translate(1022,316)" d="m0 0h7l1 5-4 1-4-4z" fill="#071F22"/>
<path transform="translate(1076,175)" d="m0 0 3 1-2 4-5 4-4 4 2-6z" fill="#082224"/>
<path transform="translate(1588,630)" d="m0 0h5v2h-2v2l-6 2-2-4z" fill="#072022"/>
<path transform="translate(245,579)" d="m0 0 5 1 5 2v3l-6-1-5-2z" fill="#0C2628"/>
<path transform="translate(953,496)" d="m0 0 3 1 5 6-1 3-3-1-4-5z" fill="#0A1F21"/>
<path transform="translate(1799,404)" d="m0 0 5 2 1 5 3 1 2 5-4-1-5-8z" fill="#0B2C2D"/>
<path transform="translate(1017,346)" d="m0 0 1 3-5 6-6 3 2-4 5-5z" fill="#0B2728"/>
<path transform="translate(1158,620)" d="m0 0 3 2v2l3 1-3 1h-6v-3z" fill="#092527"/>
<path transform="translate(1033,392)" d="m0 0v3l-8 10-2-4 8-7z" fill="#132F30"/>
<path transform="translate(219,330)" d="m0 0 4 1h-2l-2 4-5 1v2h-2l2-5z" fill="#0B2527"/>
<path transform="translate(1102,315)" d="m0 0 2 1-2 4-6 4h-2l1-3h2l2-4z" fill="#0C2628"/>
<path transform="translate(929,627)" d="m0 0 3 1 3 5-8-1-1-2z" fill="#0B2123"/>
<path transform="translate(289,591)" d="m0 0h10l-1 3h-14v-1l5-1z" fill="#092728"/>
<path transform="translate(1771,475)" d="m0 0 3 2-3 10-2-2 1-9z" fill="#123737"/>
<path transform="translate(226,379)" d="m0 0h2l-1 4-7 6-1-2z" fill="#092325"/>
<path transform="translate(1481,347)" d="m0 0 1 2-6 9h-3l2-5 5-5z" fill="#082123"/>
<path transform="translate(742,314)" d="m0 0h13v3l-12-1z" fill="#061A1D"/>
<path transform="translate(1047,146)" d="m0 0 2 1-3 5-7 3 2-4 3-4z" fill="#071C1F"/>
<path transform="translate(991,13)" d="m0 0h9l-3 3h-11v-2z" fill="#FEFEFE"/>
<path transform="translate(1059,558)" d="m0 0 4 1 5 9h-3l-6-9z" fill="#0B2B2D"/>
<path transform="translate(943,439)" d="m0 0h2v4l-3 5-4 1 2-5z" fill="#133232"/>
<path transform="translate(947,488)" d="m0 0 5 3 3 5h-2l-1 2-5-8z" fill="#0D2A2B"/>
<path transform="translate(939,448)" d="m0 0h2l-2 4-5 5-2 1 2-5z" fill="#082022"/>
<path transform="translate(1439,309)" d="m0 0 4 1 1 8-1 2h-3l1-9-3-1z" fill="#082426"/>
<path transform="translate(1214,370)" d="m0 0 1 2h2l-2 9-3 1 1-8z" fill="#0C2627"/>
<path transform="translate(238,370)" d="m0 0m-2 1h2v3l-8 5-1-2 4-4z" fill="#0A282A"/>
<path transform="translate(1407,361)" d="m0 0 7 1 5 5-2 2-4-4-6-3z" fill="#092729"/>
<path transform="translate(1820,330)" d="m0 0h2l4 7v2l-4-1-2-4z" fill="#081E21"/>
<path transform="translate(267,588)" d="m0 0h7l5 1-2 3-10-2z" fill="#0E3131"/>
<path transform="translate(872,484)" d="m0 0 2 2v7l-3 4v-10z" fill="#082124"/>
<path transform="translate(975,401)" d="m0 0v3l-4 6-4 1 2-5z" fill="#081C1F"/>
<path transform="translate(442,315)" d="m0 0h7l-1 4-5 2-1-3z" fill="#092527"/>
<path transform="translate(1078,156)" d="m0 0h5l-4 4-6 2 2-4z" fill="#0F3132"/>
<path transform="translate(745,625)" d="m0 0 1 3 2 4 3 2h-6l-2-6z" fill="#06191C"/>
<path transform="translate(1682,601)" d="m0 0h4l-2 6-4 1 1-5z" fill="#0C2728"/>
<path transform="translate(1591,587)" d="m0 0 2 1-2 4-6 2 1-4z" fill="#0D2B2C"/>
<path transform="translate(1749,427)" d="m0 0 2 2-1 5-2 3-2-1 1-5z" fill="#092426"/>
<path transform="translate(1092,313)" d="m0 0h19v2l-4 1-1-1-14-1z" fill="#2A5B57"/>
<path transform="translate(1047,182)" d="m0 0 1 3-6 7-2-1 1-4z" fill="#133838"/>
<path transform="translate(1075,131)" d="m0 0 2 3-4 3-3-1 1-1-2-1v-2z" fill="#082426"/>
</svg>
