<?xml version="1.0" encoding="UTF-8"?>
<svg version="1.1" viewBox="0 0 2048 651" width="745" height="237" xmlns="http://www.w3.org/2000/svg">
<path transform="translate(0)" d="m0 0h2048v651h-2048z" fill="#E3E2E2"/>
<path transform="translate(506,311)" d="m0 0h4l-2 4-7 7-4 8-1 4v110l2 3 5 1 102 1 23 1-2-113-4-9-9-10-3-3v-2l91-1-13 13-5 10-1 6-1 25v54l1 189 3 10 7 12 3 4v2l-77-4 2-5 3-6 2-13 1-15v-94l-120-2-11-1 1 5 1 14v100l7 14 3 4v2l-8-1h-66l4-6 4-5 4-10 1-7v-175l-1-95-4-10-6-7-7-4v-2l55-1z" fill="#0B3635"/>
<path transform="translate(934,312)" d="m0 0h5l-1 3-9 7-4 6-1 5-1 129v4l5-5 16-24 11-13 13-17 12-16 13-17 11-14 15-20 6-10 1-7-5-6v-3l66-1 24-1v3l-13 8-8 7-7 8-11 12-9 11-12 14-11 13-11 12-9 12-9 10-8 10-9 14-5 5 1 6 7 11 10 13 12 16 10 14 10 13 12 16 10 15 10 16 16 23 13 17 8 10 10 12v1l-5 1h-32l-15-1-13-4-10-8-7-7-12-17-14-22-9-12-13-18-9-12-14-18-12-15-5-8h-2l-7 9-8 7-6 3v97l2 10 4 8 4 5v2h-42l-35 1-2-1v-2l8-6 4-11 1-9v-190l-1-70-2-11-6-11-9-7-3-3 1-1 39 1h20z" fill="#0B3635"/>
<path transform="translate(1792,311)" d="m0 0h7l7 3 11 9 8 11 8 16 10 23 15 37 10 23 10 28 8 21 11 30 12 30 10 28 15 36 8 15 8 11v2h-40l-14-3-10-7-8-10-6-12-9-29-4-16-4-1-23 1-53 1-32 1-2 5-13 34-10 32-4 2-15 2-16 1h-25l6-9 8-13 8-17 15-40 9-22 12-31 17-47 20-52 10-29 15-36 5-19-1-7z" fill="#0B3635"/>
<path transform="translate(1558,308)" d="m0 0h10l20 2 17 4 16 7 12 7 13 12 7 10 4 9-3 7-13 14-7 8-7 9-4 4-5-15-6-8-7-7-17-9-17-5-6-1h-23l-13 4-8 7-6 12-2 13 2 12 6 12 5 6 13 8 16 8 40 17 23 12 9 7 10 9 9 10 8 14 4 12 2 13v20l-3 17-5 12-7 11-11 13-7 8-11 9-21 11-17 6-14 3-9 1h-19l-25-4-17-5-16-8-12-8-13-12-9-10-2-3 1-8 4-11 9-14 12-14 11-16 1 4-1 9 5 14 9 15 5 5v2l4 2 9 6 12 6 16 4 8 1h18l12-3 11-6 6-5 8-14 1-4v-21l-5-13-8-10-10-8-17-9-27-11-21-9-15-9-13-11-9-10-9-16-6-14-3-12v-20l3-17 6-14 9-14 9-11 11-10 16-9 13-5 19-4z" fill="#0B3635"/>
<path transform="translate(289,311)" d="m0 0h18l19 2 17 4 16 7 11 6 14 11 9 10 7 11 1 7-7 8-18 18-7 13h-2l-2-13-5-8-7-7-17-10-20-8-13-3h-22l-16 3-16 6-15 9-9 8-8 10-9 13-8 16-5 15-3 15-1 11v17l2 18 4 17 5 13 8 14 9 12 11 11 13 9 13 6 16 5 20 3h12l21-3 18-6 14-8 13-10 10-9 12-11h4l1 5v21l-2 28-11 10-13 10-15 9-17 7-21 6-14 2h-25l-20-3-19-5-19-7-19-10-12-9-15-14-12-15-9-14-9-19-5-15-4-17-2-14v-36l4-23 9-27 6-13 7-13 11-15 9-10 17-17 15-11 16-8 21-8 22-5z" fill="#0B3635"/>
<path transform="translate(1113,313)" d="m0 0 5 1 10 6 6 9 2 6 1 17-1 33v240l-1 8 3 1 58 1 2 2-3 2h-29l-25-1-3-1-21-1-1-4-9-11-10-12-14-19-20-30-9-14-10-14-10-13-12-16-10-14-14-18-9-14-1-6 7-8 10-15 9-10 10-12 6-8 13-14 7-9 10-11 8-10 10-11 7-8 8-9 11-8z" fill="#E4E3E3"/>
<path transform="translate(1447,304)" d="m0 0 1 3-7 25-11 50-3 7-2-1-6-16-6-5-11-4-11-2h-34l-5 2-1 6v106l1 122 3 17 5 10 9 8v2l-67 1-14 1v-3l6-12 2-8 1-10 1-109-1-44v-28l1-60h-46l-12 3-9 6-5 5-8 9-5 6-3-1 1-11 8-29 6-24 6-15 2-4 2 5 68 1h92l32-2 12-3z" fill="#0B3635"/>
<path transform="translate(727,312)" d="m0 0h12l21 1h61l-1 4-10 9-5 9-2 11-1 21v72l2 162 2 11 4 9 9 13v1h-86v-3l6-5 5-8 4-16 1-13v-245l-2-10-6-11-9-7z" fill="#0B3635"/>
<path transform="translate(1119,313)" d="m0 0 85 1-7 11-4 11-2 14-1 12-1 34-1 71v38l1 93 3 17 6 12 5 7v1l-66-1-2-1v-248l1-40-2-13-5-10-10-7z" fill="#0B3635"/>
<path transform="translate(995,25)" d="m0 0h20l13 4 9 4 8 6v2l4 2 9 10 8 14 5 9 5 10 3 4 4 16 5 7v7l-4 2-23 4-15 6-12 9-12 11-7 7-4 7-2 8-2-3-6-14-11-13-5-3-1-2-4-2v-2l-5-2-11-5-14-4-19-1-16-3-7-2-1-4v-9l4-13 14-20 9-11 5-6 9-7 9-4 6-2 1-2 14-8 9-5z" fill="#8FC5BD"/>
<path transform="translate(898,121)" d="m0 0h8l37 6 15 4 14 8 10 9 11 11 7 10 3 8 3 20v17l-1 3-4-2-14-14-8-10-12-13-11-11-10-8-5-3-4-1 8 16 10 13 11 13 12 13 9 8 15 10-1 6h-20l-13-3-20-9-11-8-10-10-10-14-11-21-4-13-3-23z" fill="#0C3736"/>
<path transform="translate(1119,123)" d="m0 0h4l-1 11-4 21-4 12-7 14-12 16-8 10-7 8-9 6-15 7-16 4-15 1-2-1 2-4 8-8 8-7 9-10 7-8 15-16 10-13 2-6-5 1-8 4-11 9-12 12-12 14-8 8-5 4-5 6h-2v-16l3-21 4-12 7-9 11-12 12-9 14-7 15-4 28-4z" fill="#0B3635"/>
<path transform="translate(995,25)" d="m0 0h20l13 4 9 4 8 6v2l4 2 9 10 8 14 5 9 5 10 3 4 4 16 5 7v7l-4 2-23 4-8 3h-3l-2-5h-3l-1-8v-11l-2-12-3-12-4-10-7-11-8-11-8-4-4-1h-11l-11 3-14 8-12 6-12 7-6 3-5 9-4 10-4 14-1 12 1 5 13 1v1h-11l-16-3-7-2-1-4v-9l4-13 14-20 9-11 5-6 9-7 9-4 6-2 1-2 14-8 9-5z" fill="#A0DCCF"/>
<path transform="translate(1542,355)" d="m0 0h23l14 3 13 5 13 7 11 11 5 10v7l-1 1-7-1-9-11-1-4h-2v-2l-4-2-8-6-8-5-13-5-17-1-14 1-9 5-4 5-3 9-1 9 4 13 4 9 7 8 14 8 20 9 10 4 11 5 13 6 16 8 10 7 7 4 6 5 8 11 4 5 7 15 3 12 2 23v21l-4 16-5 10-7 9-4 5-5 4-5 5-9 8-13 9-11 6-15 7-24 6-2 2h-47l-2-2-17-5-11-5-11-6-12-9-12-11-5-5-7-8-2-6v-10l4-10 10-14 2-3h2l2-4 9-10 6-2-2 5-13 15-8 13-4 11-1 8 11 13 7 7 12 9 14 8 13 5 21 5 15 2h19l19-3 16-5 21-10 10-7 10-9 13-16 7-11 5-12 3-17v-20l-3-17-5-12-7-11-9-10-11-10-15-9-23-11-31-13-16-8-10-6-6-5-7-11-3-8-1-11 2-11 6-12 9-8z" fill="#F1F6F5"/>
<path transform="translate(1531,307)" d="m0 0h10v2l-6 1v2l-17 5-17 9-11 9-9 10-9 14-7 14-3 12-1 8v20l3 12 7 16 8 14 11 12 13 10 18 10 35 14 17 8 11 7 10 9 6 9 3 8v20l-1 3-3-1-3-16-4-7-5-7v-2h-2l-5-6-2-1v-2l-5-2-10-7-14-4-13-5-10-4-12-5-17-9-11-8v-2h-2v-2l-3-1-7-8v-2l-3-1v-2h-2l-5-8-4-10-4-9-6-19-4-9-2-4-13-8-3-3 2-13 11-50 5-17h2l1-3 3 5-1 23 1 3 5 2h11l16-12h3v-2l11-7 19-9z" fill="#F4F7F7"/>
<path transform="translate(1113,313)" d="m0 0 5 1 10 6 6 9 2 6 1 17-1 33v240l-1 8 3 1 58 1 2 2-3 2h-29l-25-1-3-1-21-1-1-4-9-11-10-12-14-19-20-30-9-14-10-14-10-13-12-16-10-14-14-18-9-14-1-6 7-8 10-15 9-10 10-12 6-8 13-14 7-9 10-11 8-10 10-11 7-8 8-9 11-8zm1 6-18 14v2l-4 2-5 4-7 8-6 7v2h-2l-4 6-8 9-8 10v2h-2l-7 8v2l-4 2-9 12v2h-2l-6 9-8 6-9 14v2h-2l-7 9v7l4 8h2l2 5 10 12 7 8 10 13 8 10 10 14 11 18 7 12 10 15 9 13 15 20 11 13 6 5 4 4 4-1 1-1 2-16 2-28v-29l-1-32v-87l-1-14v-41l1-16v-19l-4-10-7-14z" fill="#F0F4F4"/>
<path transform="translate(1056,128)" d="m0 0 10 1 2 2-1 2-16 8-13 11-7 8-7 9-4 12-3 21-1 16 5-4 5-6 8-7 10-11 7-9 16-14 9-6 5-2 4 1-2 6-10 13-9 9-7 8-12 13-7 8-13 12-5 5h-9l-9 2-1-4v-4l-11-7-11-9-10-10-7-8-9-11-11-15-5-10v-3l6 1 9 7 12 11 12 12 9 11 11 12 7 7 2 1v-20l-4-24-6-10-11-12-9-9-11-7-1-3 4-1 13 4 1 2 4 2 1 2 5 3 9 10 9 18 2-8 6-8 13-13 13-10 7-4z" fill="#F0F5F5"/>
<path transform="translate(997,13)" d="m0 0h16l19 4 10 3 16 6 8 5 8 6 8 8v2l4 2 7 9 10 13 5 11 7 23 2 8v7l-1 2 3 2-32 4-17 4-3-1-5-2h-9l2-2 11-3 18-3 4-1-1-7-5-7-5-18-3-3-6-13-7-12-6-9-8-9-2-1v-2l-4-2-7-5-14-5-5-1h-20l-15 4-7 3-8 2-6 1-9 3-2-1 5-5 6-3h3v-2h3l1-3 10-3v-2z" fill="#C3EBE2"/>
<path transform="translate(1799,407)" d="m0 0 3 1 6 12 10 30 7 20 6 16 6 21-1 3h-55l-15 1-1-3 7-26 11-33 10-25 5-16z" fill="#E3E2E2"/>
<path transform="translate(898,121)" d="m0 0h8l4 3h-3l-1 9 4 16 5 14 5 7 5 2 1 5 5 1-2 5 7 2v2l4-1 3 2-1-6-7-11-1-10 2-4 3 3 6 11 10 13 11 13 12 13 9 8 15 10-1 6h-20l-13-3-20-9-11-8-10-10-10-14-11-21-4-13-3-23z" fill="#071F22"/>
<path transform="translate(1927,308)" d="m0 0h16l8 3 8 9 6 12 1 10-3 10-9 10-8 4-5 1h-14l-10-4-7-7-5-9-1-4v-11l6-12 7-7z" fill="#F0F5F5"/>
<path transform="translate(1226,310)" d="m0 0h4l-2 10-7 25-6 23-3 11-2 6-1 5-6-1-4-5-2 2-2 16-1 26v37l-1 31v25l-1 12-2-1-1-13v-157l2-21 3-12 6-10 5-4 12 2z" fill="#F5F8F8"/>
<path transform="translate(1801,309)" d="m0 0 9 1 13 11 5 5 4 5 6 10 8 20 3 8 10 25 15 33 6 15 3 10 5 12 8 23 6 17 8 21 5 12 5 14 11 30 4 10 7 20 6 9 2 4 1 8-3-1-10-15-9-19-14-35-10-28-12-30-13-36-8-21-9-24-9-20-12-30-13-29-6-12-9-11-8-6-8-4z" fill="#F2F5F5"/>
<path transform="translate(851,319)" d="m0 0 6 1 6 7 4 8 2 11 1 70v190l-2 13-4 8-2 2-3-1 4-8 1-3 1-21-2-50v-92l-1-47-2-58-2-12-4-10-4-7z" fill="#EFF4F3"/>
<path transform="translate(946,492)" d="m0 0 3 1 9 13 13 16 10 13 22 30 12 17 10 16 10 14 9 10 11 8 11 3 15 1 2 1 21 1v2l-4 1-25 1-15-2-10-4-9-6-4-3v-2l-4-2-1-3-4-2-1-3h-2l-6-8-6-7-7-12-7-9-11-14-10-17-6-8-10-15-8-11-6-6-5 1-7 3-6 5-2 3-3-1v-6l9-5 7-7z" fill="#F3F6F6"/>
<path transform="translate(132,488)" d="m0 0 2 2 3 23 4 17 6 18 12 23 13 17 9 10 11 10 15 10 21 10 22 7 20 4 12 2 15 1v1l-8 2h-13l-24-3-18-4-14-4-16-8-11-6-10-9-8-7-7-7-8-10-10-14-8-15-6-15-2-7-2-28z" fill="#F2F6F5"/>
<path transform="translate(1855,555)" d="m0 0 5 2 6 23 9 27 6 10 7 8 8 5 14 3 33 3-2 2-9 2h-23l-11-2-10-5-10-9-6-10-5-10-6-19-6-21-5-2-48 2h-26l-23 1-5 5-6 12-4 2 1-7 6-15 4-4 30-1 53-1z" fill="#F1F5F5"/>
<path transform="translate(624,497)" d="m0 0 5 1 3 4 3 14 1 11v12l4 42-1 7v20l1 7-2 7v3l5 2 3 4-3 1h-24l2-5 3-10 2-23v-96z" fill="#072022"/>
<path transform="translate(950,160)" d="m0 0 8 1 9 5 2 1h11l7-2 3-4h2v2l4 2 4 4 3 8 3 20v17l-1 3-4-2-14-14-8-10-12-13-11-11-6-5z" fill="#071F22"/>
<path transform="translate(1799,407)" d="m0 0 3 1 6 12 10 30 7 20 6 16 2 7v7l-4-5-13-27-9-27-4-6-5 1-6 10-4 8-7 19-6 22v9 4l-6 3-4-1 4-18 11-35 12-30 6-19z" fill="#F0F5F4"/>
<path transform="translate(448,424)" d="m0 0 2 4 2 27 1 26-1 32 1 39 3 36v12l-1 8-4 10-4 6-1 9-2 1h-9l1-4 5-6 4-10 1-7 1-114v-68z" fill="#071E21"/>
<path transform="translate(937,155)" d="m0 0 6 1 9 7 12 11 12 12 9 11 11 12 5 5 1 9-1 1h-7l-14-11-11-11-7-8-9-11-11-15-5-10z" fill="#F2F5F5"/>
<path transform="translate(1571,305)" d="m0 0h12l18 3 17 5 14 7 7 4 3 2v2l5 2v2h2l6 7 6 10 2 7v7l-4 9h-2v2l-7 5-4 6-5 5-4 5-6 5h-2l-1 2-3 1 2-7 6-8 14-15 8-10 1-4-4-9-8-11-11-10-14-8-14-6-17-4-11-2v-2h-9z" fill="#F1F5F5"/>
<path transform="translate(1927,308)" d="m0 0h16l8 3 8 9 6 12 1 10-3 10-9 10-8 4-5 1h-14l-10-4-7-7-5-9-1-4v-11l6-12 7-7zm2 5-8 4-5 4-4 7-1 4v8l2 9 6 8 5 4 6 2h8l9-2 8-6 4-7v-14l-4-10-7-8-5-3z" fill="#082526"/>
<path transform="translate(728,315)" d="m0 0 6 2 8 7 7 13v154h-2l-1-17v-10l-1-14-1-56-2-28-2-21-2-11-7-11-3-4z" fill="#F6F9F9"/>
<path transform="translate(1357,360)" d="m0 0h34l18 4 8 5 4 5 3 8v5l-4-1-4-5-4-6-10-5-14-3h-21l-8 2-2 3-1 32-2 81h-1l-1-16v-28l-1-30v-31l1-18z" fill="#F4F7F7"/>
<path transform="translate(1252,361)" d="m0 0h46l-1 32-1 29-1 7h-1l-2-14-1-19-1-17-2-7-5-2-11-1h-22l-11 3-11 8-5 6-5 1 1-4 8-10 11-8 8-3z" fill="#F4F7F7"/>
<path transform="translate(167,580)" d="m0 0 1 2 3 1 3 4v2h3l3 3v2l4 2 5 4 7 4v2l4 2 3 1v2l5 2 17 9 12 4 7 2 16 4 25 3 21 2 7 1v2l-9 1h-25l-20-3-19-5-19-7-19-10-12-9-15-14-8-10z" fill="#072224"/>
<path transform="translate(897,123)" d="m0 0 2 1 3 27 4 15 10 21 10 14 9 10 7 6 14 8 15 6 24 4-3 2h-18l-15-5-14-7-14-10-8-8-8-10-7-12-8-19-3-12-1-13v-11z" fill="#EFF4F4"/>
<path transform="translate(1481,546)" d="m0 0h3l4 9 7 11 10 9 2 1v2l5 2 7 5 12 5 16 3h16l13-3 12-6 5-3 1 4-11 8-9 4-9 2h-18l-18-3-15-6-11-7-5-4-8-10-7-12z" fill="#EFF4F3"/>
<path transform="translate(1300,542)" d="m0 0h1l2 19 1 22 2 18 1 4v10h3v4h-4v6l13 3 1 4-3 1-26 1v2l-4-1 7-14 1-3h2l1-12 1-48z" fill="#071E21"/>
<path transform="translate(1927,319)" d="m0 0h16l5 4 2 5v14l-3 9-5 4h-4l2-22v-7l-6-2-2 31-5-1-3-4-1-4v-22z" fill="#0B3534"/>
<path transform="translate(246,319)" d="m0 0h6l-3 2-19 7-16 8-8 6-9 7-6 8h-2l-2 4-3 4h-2l-2 4-10 13-5 11-9 14-9 17-3 9-2 9-1 3-2 10-2 7h-1l1-17 4-15 8-22 8-16 8-12 10-13 22-22 15-11 16-8z" fill="#072123"/>
<path transform="translate(1124,123)" d="m0 0 2 3 1 2v13l-3 15-5 14-7 13-16 22-12 12-9 3 1-3 8-7 9-12 9-11 7-11 6-14 4-16 3-18z" fill="#EEF5F4"/>
<path transform="translate(804,477)" d="m0 0h2l2 13v95l1 22 4 13 2 2v3l-4-1-5-9-1-3-1-13z" fill="#F6F9F9"/>
<path transform="translate(430,315)" d="m0 0h14l1 1 1 11 2 6 1 21v66l-1 6v67l-1 87h-1v-148l-1-95-4-10-6-7-5-3z" fill="#0A2D2E"/>
<path transform="translate(1784,326)" d="m0 0 1 2-2 11-15 36-15 43-1 2h-2l-1 2-1-6 4-11 3-11 10-30 9-22 7-14z" fill="#F1F5F5"/>
<path transform="translate(1449,600)" d="m0 0 4 2 5 5 5 4 2 1v2l6 2 2 4 9 4 18 6 19 4 20 3 28 1h7v2l-19 3h-19l-25-4-17-5-16-8-12-8-13-12-4-4z" fill="#072224"/>
<path transform="translate(281,358)" d="m0 0h22l16 4 21 9 14 9 9 9 2 4v8l-4-2-6-8-8-8-13-8-15-8-12-4h-34l-14 2v-2l15-4z" fill="#F0F4F4"/>
<path transform="translate(609,315)" d="m0 0 4 2 8 8 5 9 1 106v7h-3v-34l-1-12-2-43-2-19-4-9-6-9-1-4z" fill="#F6F8F8"/>
<path transform="translate(1021,319)" d="m0 0 4 1 2 3-1 7-9 14-13 17-11 14-10 13-14 19-8 10-2-1 2-2 4-10 10-13 5-7h2l2-6 8-10 12-16 8-10h2l2-4 4-9z" fill="#EFF4F3"/>
<path transform="translate(925,402)" d="m0 0h1l2 18 1 24 5-1 4-4h2l2-4 3-3h2l2-6 6-7 4-1-2 4-8 10-10 14-10 15-4 5h-2l-1-4v-20l1-20 1-5z" fill="#EFF4F3"/>
<path transform="translate(611,314)" d="m0 0h25l3 2h-15l-1 7 6 9 1 3 1 40 1 13 1 38v17l-2 6-2 1-1-87v-26h-2l-4-9-9-10z" fill="#071E21"/>
<path transform="translate(1075,175)" d="m0 0h2l-3 6h-2l-1 3h-2v2h-2l-2 6-6 10-5 4-1 3h-2l-1 5-5 6 1 4 2 5h-3v2l-14 2h-6l-2-1 2-4 8-8 8-7 9-10 7-8 15-16z" fill="#072123"/>
<path transform="translate(751,521)" d="m0 0h1l2 43 2 23v11l-3 16-6 12 1 8h-14l10-15 4-16 1-13h2z" fill="#071F22"/>
<path transform="translate(1137,522)" d="m0 0h1l1 8 1 21 1 5 2 51-2 15-1 2v9h-5l1-27z" fill="#071E21"/>
<path transform="translate(193,450)" d="m0 0 1 2 2 1v33l5 27 3 12 4 9 4 8-1 2-5-5-8-16-5-17-2-12-1-12v-17l1-11h2z" fill="#EAF1F0"/>
<path transform="translate(607,499)" d="m0 0h19l1 1-1 14-4-5-5-2-7-1-77-4-11-1v-1z" fill="#F7F9F9"/>
<path transform="translate(135,464)" d="m0 0h2v11l1 18 6 29 3 9 2 7 6 17 4 10h-3l-4-5-7-15-5-15-4-17-2-14v-22z" fill="#072224"/>
<path transform="translate(982,215)" d="m0 0 4 2 13 9 3 2-1 6h-20l-13-3v-1h5l-3-8 2-5 4-1h6z" fill="#0B3635"/>
<path transform="translate(698,316)" d="m0 0 1 4-8 10-3 6-2 17-1 18-1 38-1 5h-1l-2-15v-33l1-25 2-9 3-5 8-7z" fill="#EEF4F3"/>
<path transform="translate(1294,446)" d="m0 0h1l2 18v70l-2 4-2-7-1-10v-65z" fill="#F8FAFA"/>
<path transform="translate(1860,554)" d="m0 0 2 1 8 21 3 8 9 25 2 9 2 4 3 1-3 1-8-10-6-12-9-29-3-11z" fill="#072224"/>
<path transform="translate(1235,306)" d="m0 0h43l25 1 13 2-2 2-73 1-6-1z" fill="#F8FAFA"/>
<path transform="translate(816,319)" d="m0 0h3l-1 5-6 8-3 7-3 24-1 32-1 6h-1l-1-5v-50l3-14 7-9z" fill="#F0F4F3"/>
<path transform="translate(1438,303)" d="m0 0 7 1v2l-12 5-30 1h-39v-2l16-2 43-2 12-2z" fill="#F6F8F8"/>
<path transform="translate(905,105)" d="m0 0h1l2 11v2l7 1 16 3 19 1 17 5 11 6-2 1-10-3-4 2-10-4-26-5-20-3 1-2-4-2-1-4z" fill="#D7E2E0"/>
<path transform="translate(1734,460)" d="m0 0h1l-1 7-17 47-5 12h-2v-7l6-20 6-15 4-12 6-11z" fill="#F0F4F4"/>
<path transform="translate(1943,320)" d="m0 0 4 2 3 6v14l-3 9-5 4h-4l2-22v-7-3h4z" fill="#0C3736"/>
<path transform="translate(1684,586)" d="m0 0h3l-1 7-8 18-8 14-6 8-3-1 1-5 6-11 9-20z" fill="#F2F6F6"/>
<path transform="translate(1191,565)" d="m0 0h1l3 38 4 15 5 9v6l-4-2-6-9-4-11v-45z" fill="#F3F6F6"/>
<path transform="translate(1929,313)" d="m0 0h14l6 4 6 7 4 10v14h-1l-1-13-4-8h-1l-1 10h-1l-2-12-5-5h-16l-3 2-3-2-5 2 5-5z" fill="#D2E2DF"/>
<path transform="translate(1303,635)" d="m0 0h67v1l-12 3h-61v-2l-2-1z" fill="#F8FAFA"/>
<path transform="translate(1075,580)" d="m0 0 3 1 12 17 10 13 8 10 7 8v4l-4-1-4-4-1-5h-2l-9-11-2-5h-2l-11-17-5-8z" fill="#082325"/>
<path transform="translate(611,314)" d="m0 0h25l3 2h-15l-1 7 6 9 1 3v29l-2-1v-26h-2l-4-9-9-10z" fill="#072022"/>
<path transform="translate(1139,635)" d="m0 0h57l2 2-3 2h-29l-25-1z" fill="#F8FAFA"/>
<path transform="translate(392,543)" d="m0 0h4v19l-6-4h-7l-10 5 2-4 11-11z" fill="#071F22"/>
<path transform="translate(1353,585)" d="m0 0 2 4 6 25 4 7 2 3v5l-1-2-6-2-4-6-2-5-1-11z" fill="#F3F7F7"/>
<path transform="translate(433,320)" d="m0 0 4 1 5 6 3 6v95h-1l-1-51v-30l-3-14-6-11z" fill="#F5F7F7"/>
<path transform="translate(246,319)" d="m0 0h6l-3 2-19 7-16 8-8 6-13 10-19 19v-3l23-23 15-11 16-8z" fill="#092829"/>
<path transform="translate(1902,342)" d="m0 0 3 1 4 10 8 9 10 4v2l6 1-2 2-4 1-6-3-3-3-7-2-6-9-3-8z" fill="#EDF3F2"/>
<path transform="translate(1294,597)" d="m0 0h2v21l-5 12-3 4h-2l1-9 4-11 2-15z" fill="#F3F6F6"/>
<path transform="translate(1075,124)" d="m0 0h14l4 2h-6v2l-17 4-3-1-5-2h-9l2-2 6-2z" fill="#DBE2E0"/>
<path transform="translate(430,315)" d="m0 0h14l1 1 1 11 2 6v5l-3-1-4-10-6-7-5-3z" fill="#072124"/>
<path transform="translate(626,634)" d="m0 0h32l16 1 1 1 11 1v1h-31l-7-1-20-1z" fill="#F0F4F4"/>
<path transform="translate(905,105)" d="m0 0h1l2 11v2l7 1 16 3 19 1v1l-24 1-20-3 1-2-4-2-1-4z" fill="#C3EAE1"/>
<path transform="translate(1453,567)" d="m0 0 1 2-6 18-1 5 1 5 1 2-4-2-3-4 1-8 4-11 3-5z" fill="#082426"/>
<path transform="translate(683,542)" d="m0 0h2l1 3v32l-2 7h-1z" fill="#F8FAFA"/>
<path transform="translate(769,635)" d="m0 0h35l4 2-3 1h-34l-5-1z" fill="#F8FAFA"/>
<path transform="translate(1912,328)" d="m0 0h1l3 19 4 8 5 4 4 1 15 1v1l-6 1h-8l-8-3-8-9-2-5-1-6v-8z" fill="#CBDBD8"/>
<path transform="translate(1691,635)" d="m0 0h12l-4 2-1 1-14 2h-13v-4z" fill="#F8FAFA"/>
<path transform="translate(145,424)" d="m0 0 1 4-2 5-2 9-1 3-2 10-2 7h-1l1-17 4-15 3-5z" fill="#082628"/>
<path transform="translate(986,540)" d="m0 0 5 2 7 8 2 4 1 7-3-1-12-17z" fill="#082325"/>
<path transform="translate(1020,153)" d="m0 0 1 3-7 12-3 9h-3l-2-5 1-3 2 3 2-8 6-8z" fill="#DBE5E3"/>
<path transform="translate(1024,595)" d="m0 0h2l5 8 6 6 2 5 6 7 6 5h-3l-8-7-7-8-9-13z" fill="#082426"/>
<path transform="translate(1034,201)" d="m0 0v3l-14 14-4 6-2 1v-15l1-8h1v16l5-4 5-6z" fill="#D3E0DE"/>
<path transform="translate(1449,600)" d="m0 0 4 2 5 5 5 4 2 1v2l6 2 2 4 3 2-1 2-10-7-12-11-4-4z" fill="#082426"/>
<path transform="translate(1964,347)" d="m0 0 4 2-2 7h-2l-1 4-3 2h-4v2h-4v-2l8-7z" fill="#EDF3F3"/>
<path transform="translate(370,393)" d="m0 0 5 1-1 4-5 10h-2l-1-14z" fill="#082627"/>
<path transform="translate(1188,566)" d="m0 0 3 3-1 37h-1l-1-8z" fill="#BED9D4"/>
<path transform="translate(1132,308)" d="m0 0h20l5 1-1 2h-25l-1-2z" fill="#F8FAFA"/>
<path transform="translate(1951,321)" d="m0 0 3 1 4 8 1 4v14h-1l-1-13-4-8h-1l-1 10h-1l-2-14h2z" fill="#CADFDB"/>
<path transform="translate(624,598)" d="m0 0h1v19l-3 10-3 2 2-7 1-15z" fill="#EFF3F2"/>
<path transform="translate(916,120)" d="m0 0 15 2 19 1v1l-24 1-13-2 3-1z" fill="#B8E4DB"/>
<path transform="translate(687,626)" d="m0 0h2l6 9v2l-8-1-3-1z" fill="#082326"/>
<path transform="translate(1605,563)" d="m0 0h1l-1 10-6 9-7 6 2-4 8-14 1-4h2z" fill="#082527"/>
<path transform="translate(1075,175)" d="m0 0h2l-3 6h-2l-1 3h-2v2h-2l-1 4-8 7-7 6 2-4 9-9 7-8z" fill="#0A2D2E"/>
<path transform="translate(746,594)" d="m0 0h2v15l-2 5-2 1v-9l1-11z" fill="#F2F6F5"/>
<path transform="translate(1911,328)" d="m0 0 1 4v8l2 9 6 8 2 3-4-2-6-7-3-6 1-15z" fill="#0C3736"/>
<path transform="translate(1e3 214)" d="m0 0h1v9l-2 5-5-1-3-3 5-1v-8l4 2z" fill="#BDDED8"/>
<path transform="translate(197,345)" d="m0 0h2l-2 4-8 7-15 15v-3z" fill="#092A2B"/>
<path transform="translate(1e3 177)" d="m0 0h1l3 20v17l-1 3-4-2 3-1v-14l-2-15z" fill="#0C3736"/>
<path transform="translate(497,622)" d="m0 0 3 1 7 11v2h-3v-2l-5-1z" fill="#082426"/>
<path transform="translate(625,414)" d="m0 0h1l1 11v22h-3z" fill="#F8FAFA"/>
<path transform="translate(497,497)" d="m0 0 7 1 6 1-3 1-1 2-9 2z" fill="#F6F8F8"/>
<path transform="translate(683,610)" d="m0 0 3 2 4 13 1 3h-2l-6-11z" fill="#EFF2F2"/>
<path transform="translate(958,418)" d="m0 0v3l-9 11-2 1 1-5 6-8z" fill="#EBF1F0"/>
<path transform="translate(1218,381)" d="m0 0 1 3-6 7-3-1v-4h2l1-4z" fill="#082426"/>
<path transform="translate(1927,308)" d="m0 0h16l8 3 6 6v2l-4-1-3-5-8-3-15-1z" fill="#0C3736"/>
<path transform="translate(329,586)" d="m0 0h6l-3 2-14 4h-10v-1l12-1v-2z" fill="#082426"/>
<path transform="translate(1348,580)" d="m0 0 2 1v21l-2-3-1-13z" fill="#071E21"/>
<path transform="translate(1479,530)" d="m0 0 1 4-1 4h-2l-1 4-5 2 2-5z" fill="#09292A"/>
<path transform="translate(1727,617)" d="m0 0h1l-1 11-4 2v-7l1-3h2z" fill="#F1F5F4"/>
<path transform="translate(648,635)" d="m0 0h26v1l-14 1-5 1-7-1z" fill="#E7EEED"/>
<path transform="translate(1449,600)" d="m0 0 4 2 5 5 5 6h-3l-11-11z" fill="#082728"/>
<path transform="translate(1686,591)" d="m0 0h2l-1 5-5 12-2 1 1-6z" fill="#082729"/>
<path transform="translate(250,578)" d="m0 0 6 1 8 3 4 3-9-1-3-1v-2l-6-2z" fill="#F1F3F3"/>
<path transform="translate(865,619)" d="m0 0h2l-1 5-4 5-3-1 3-6z" fill="#EBF1F0"/>
<path transform="translate(269,360)" d="m0 0h5l-1 3-14 2v-2z" fill="#EDF1F0"/>
<path transform="translate(1036,613)" d="m0 0 4 2 5 6 6 5h-3l-8-7-4-4z" fill="#092829"/>
<path transform="translate(388,602)" d="m0 0 3 1-3 1v2l-3 3h-2v2l-4 3-2-1 5-6z" fill="#EDF1F1"/>
<path transform="translate(361,323)" d="m0 0 8 3 4 5-5-1-7-4z" fill="#EAEFEF"/>
<path transform="translate(1943,625)" d="m0 0h2l4 6v2h-5l-2-5z" fill="#082325"/>
<path transform="translate(1350,603)" d="m0 0 1 2h2l1 5v7l-2-2-3-7z" fill="#082426"/>
<path transform="translate(965,128)" d="m0 0 6 2 7 4-2 1-9-3-8-1v-1l6-1z" fill="#E0EAE7"/>
<path transform="translate(851,315)" d="m0 0h8v5l1 2-5-2-4-3z" fill="#082526"/>
<path transform="translate(1916,311)" d="m0 0h2l-2 4-8 9-1-2 4-5 3-5z" fill="#EDF2F1"/>
<path transform="translate(386,548)" d="m0 0 2 1-14 14v-3z" fill="#09292A"/>
<path transform="translate(1709,535)" d="m0 0 1 4-5 9-1-4 3-8z" fill="#082628"/>
<path transform="translate(1934,324)" d="m0 0h5l2 2v7h-1v-6h-5l-1 6h-1z" fill="#BCDBD5"/>
<path transform="translate(1164,308)" d="m0 0 9 1 1 2h-13l-2-2z" fill="#F8FAFA"/>
<path transform="translate(139,445)" d="m0 0h1v8l-3 9h-1l1-12z" fill="#071E21"/>
<path transform="translate(145,424)" d="m0 0 1 4-2 5-4 3 2-9z" fill="#082426"/>
<path transform="translate(1015,202)" d="m0 0h1v16l2 1-4 1v-10z" fill="#B9D8D3"/>
<path transform="translate(1075,175)" d="m0 0h2l-3 6h-2l-1 3h-2v2h-2v2h-2l2-4 7-7z" fill="#092829"/>
<path transform="translate(1233,368)" d="m0 0 2 1-13 13v-3l5-6z" fill="#E4EBEA"/>
<path transform="translate(1067,222)" d="m0 0 4 1-7 5-4-1 3-3z" fill="#E6EFEE"/>
<path transform="translate(376,612)" d="m0 0 2 1-4 4-7 5h-2l1-3z" fill="#E3EBEA"/>
<path transform="translate(1750,420)" d="m0 0 1 3-4 9h-2l1-7 2-3h2z" fill="#E1EAE9"/>
<path transform="translate(1424,380)" d="m0 0 4 1v6l-2 2-2-4z" fill="#082527"/>
<path transform="translate(931,321)" d="m0 0 2 1-2 4-6 4v-4z" fill="#F3F7F6"/>
<path transform="translate(1077,213)" d="m0 0h3l-2 4-8 2v-3z" fill="#082527"/>
<path transform="translate(1017,187)" d="m0 0h1l-1 15-1-3h-2v-5l2-2z" fill="#B4D6D0"/>
</svg>
